<svg width="323" height="91" viewBox="0 0 323 91" fill="none" xmlns="http://www.w3.org/2000/svg">
<path d="M65.6992 71H55.1523V49.0625H34.5859V71H24.0391V19.8125H34.5859V40.5547H55.1523V19.8125H65.6992V71ZM91.7852 71.7031C86.207 71.7031 81.6602 69.9922 78.1445 66.5703C74.6523 63.1484 72.9062 58.5898 72.9062 52.8945V51.9102C72.9062 48.0898 73.6445 44.6797 75.1211 41.6797C76.5977 38.6562 78.6836 36.3359 81.3789 34.7188C84.0977 33.0781 87.1914 32.2578 90.6602 32.2578C95.8633 32.2578 99.9531 33.8984 102.93 37.1797C105.93 40.4609 107.43 45.1133 107.43 51.1367V55.2852H83.207C83.5352 57.7695 84.5195 59.7617 86.1602 61.2617C87.8242 62.7617 89.9219 63.5117 92.4531 63.5117C96.3672 63.5117 99.4258 62.0938 101.629 59.2578L106.621 64.8477C105.098 67.0039 103.035 68.6914 100.434 69.9102C97.832 71.1055 94.9492 71.7031 91.7852 71.7031ZM90.625 40.4844C88.6094 40.4844 86.9688 41.1641 85.7031 42.5234C84.4609 43.8828 83.6641 45.8281 83.3125 48.3594H97.4453V47.5508C97.3984 45.3008 96.7891 43.5664 95.6172 42.3477C94.4453 41.1055 92.7812 40.4844 90.625 40.4844ZM126.941 56.6211L133.973 32.9609H144.871L129.578 76.9062L128.734 78.9102C126.461 83.8789 122.711 86.3633 117.484 86.3633C116.008 86.3633 114.508 86.1406 112.984 85.6953V77.9961L114.531 78.0312C116.453 78.0312 117.883 77.7383 118.82 77.1523C119.781 76.5664 120.531 75.5938 121.07 74.2344L122.266 71.1055L108.941 32.9609H119.875L126.941 56.6211ZM170.184 19.8125H180.73V55.25C180.73 58.5078 180.004 61.3906 178.551 63.8984C177.121 66.3828 175.094 68.3047 172.469 69.6641C169.844 71.0234 166.879 71.7031 163.574 71.7031C158.16 71.7031 153.941 70.332 150.918 67.5898C147.895 64.8242 146.383 60.9219 146.383 55.8828H157C157 58.3906 157.527 60.2422 158.582 61.4375C159.637 62.6328 161.301 63.2305 163.574 63.2305C165.59 63.2305 167.195 62.5391 168.391 61.1562C169.586 59.7734 170.184 57.8047 170.184 55.25V19.8125ZM187.516 51.6289C187.516 47.8555 188.242 44.4922 189.695 41.5391C191.148 38.5859 193.234 36.3008 195.953 34.6836C198.695 33.0664 201.871 32.2578 205.48 32.2578C210.613 32.2578 214.797 33.8281 218.031 36.9688C221.289 40.1094 223.105 44.375 223.48 49.7656L223.551 52.3672C223.551 58.2031 221.922 62.8906 218.664 66.4297C215.406 69.9453 211.035 71.7031 205.551 71.7031C200.066 71.7031 195.684 69.9453 192.402 66.4297C189.145 62.9141 187.516 58.1328 187.516 52.0859V51.6289ZM197.676 52.3672C197.676 55.9766 198.355 58.7422 199.715 60.6641C201.074 62.5625 203.02 63.5117 205.551 63.5117C208.012 63.5117 209.934 62.5742 211.316 60.6992C212.699 58.8008 213.391 55.7773 213.391 51.6289C213.391 48.0898 212.699 45.3477 211.316 43.4023C209.934 41.457 207.988 40.4844 205.48 40.4844C202.996 40.4844 201.074 41.457 199.715 43.4023C198.355 45.3242 197.676 48.3125 197.676 52.3672ZM264.086 52.332C264.086 58.4258 262.785 63.1836 260.184 66.6055C257.582 70.0039 253.949 71.7031 249.285 71.7031C245.16 71.7031 241.867 70.1211 239.406 66.957L238.949 71H229.809V17H239.969V36.3711C242.312 33.6289 245.395 32.2578 249.215 32.2578C253.855 32.2578 257.488 33.9688 260.113 37.3906C262.762 40.7891 264.086 45.582 264.086 51.7695V52.332ZM253.926 51.5938C253.926 47.75 253.316 44.9492 252.098 43.1914C250.879 41.4102 249.062 40.5195 246.648 40.5195C243.414 40.5195 241.188 41.8438 239.969 44.4922V59.5039C241.211 62.1758 243.461 63.5117 246.719 63.5117C250 63.5117 252.156 61.8945 253.188 58.6602C253.68 57.1133 253.926 54.7578 253.926 51.5938ZM290.98 60.4883C290.98 59.2461 290.359 58.2734 289.117 57.5703C287.898 56.8438 285.93 56.1992 283.211 55.6367C274.164 53.7383 269.641 49.8945 269.641 44.1055C269.641 40.7305 271.035 37.918 273.824 35.668C276.637 33.3945 280.305 32.2578 284.828 32.2578C289.656 32.2578 293.512 33.3945 296.395 35.668C299.301 37.9414 300.754 40.8945 300.754 44.5273H290.594C290.594 43.0742 290.125 41.8789 289.188 40.9414C288.25 39.9805 286.785 39.5 284.793 39.5C283.082 39.5 281.758 39.8867 280.82 40.6602C279.883 41.4336 279.414 42.418 279.414 43.6133C279.414 44.7383 279.941 45.6523 280.996 46.3555C282.074 47.0352 283.879 47.6328 286.41 48.1484C288.941 48.6406 291.074 49.2031 292.809 49.8359C298.176 51.8047 300.859 55.2148 300.859 60.0664C300.859 63.5352 299.371 66.3477 296.395 68.5039C293.418 70.6367 289.574 71.7031 284.863 71.7031C281.676 71.7031 278.84 71.1406 276.355 70.0156C273.895 68.8672 271.961 67.3086 270.555 65.3398C269.148 63.3477 268.445 61.2031 268.445 58.9062H278.078C278.172 60.7109 278.84 62.0938 280.082 63.0547C281.324 64.0156 282.988 64.4961 285.074 64.4961C287.02 64.4961 288.484 64.1328 289.469 63.4062C290.477 62.6562 290.98 61.6836 290.98 60.4883Z" fill="#4F46E5"/>
</svg>
